<svg viewBox="0 0 24 24" version="1.1" xmlns="http://www.w3.org/2000/svg" style="fill-rule:evenodd;clip-rule:evenodd;stroke-linejoin:round;stroke-miterlimit:2;">
    <g transform="matrix(0.0443317,0,0,0.0443317,0.772678,0.835712)">
        <path d="M174.669,381.935L153.136,465.848C149.679,479.322 157.811,493.068 171.285,496.526C184.759,499.983 198.506,491.851 201.963,478.377L226.053,384.498C226.272,383.644 226.445,382.788 226.572,381.935L288.866,381.935C289.009,382.962 289.216,383.991 289.491,385.018L314.576,478.636C318.176,492.072 332.008,500.058 345.445,496.458C358.881,492.857 366.867,479.025 363.267,465.589L340.852,381.935L497.833,381.935C505.386,381.935 511.519,375.803 511.519,368.249L511.519,30.186C511.519,22.632 505.386,16.5 497.833,16.5L13.204,16.5C5.651,16.5 -0.481,22.632 -0.481,30.186L-0.481,368.249C-0.481,375.803 5.651,381.935 13.204,381.935L174.669,381.935ZM472.153,58.146L39.624,58.146L39.624,338.122L472.153,338.122L472.153,58.146Z"/>
    </g>
</svg>
